<?xml version="1.0" standalone="no"?>
<!DOCTYPE svg PUBLIC "-//W3C//DTD SVG 20010904//EN"
 "http://www.w3.org/TR/2001/REC-SVG-20010904/DTD/svg10.dtd">
<svg version="1.0" xmlns="http://www.w3.org/2000/svg"
 width="400.000000pt" height="400.000000pt" viewBox="0 0 400.000000 400.000000"
 preserveAspectRatio="xMidYMid meet">
<metadata>
Created by potrace 1.11, written by Peter Selinger 2001-2013
</metadata>
<g transform="translate(0.000000,400.000000) scale(0.100000,-0.100000)"
fill="#000000" stroke="none">
<path d="M0 2000 l0 -2000 2000 0 2000 0 0 2000 0 2000 -2000 0 -2000 0 0
-2000z m2450 1288 c290 -290 478 -485 502 -522 21 -33 48 -89 60 -125 l23 -66
3 -1017 c2 -560 -1 -1018 -5 -1018 -4 0 -434 425 -955 945 -521 520 -951 945
-955 945 -5 0 -7 -147 -6 -327 2 -181 4 -479 5 -663 l3 -335 33 -67 c38 -79
110 -148 180 -174 41 -16 92 -19 390 -24 l344 -5 24 -28 c33 -38 32 -90 -1
-123 l-25 -25 -368 3 -367 4 -65 28 c-158 68 -281 210 -320 367 -7 30 -10 312
-8 927 l3 882 949 -945 c522 -520 951 -945 953 -945 1 0 3 353 3 784 0 835 2
787 -46 893 -10 22 -702 724 -818 831 -2 1 -97 -91 -212 -206 -115 -115 -219
-214 -231 -221 -36 -19 -63 -13 -99 23 -37 37 -41 57 -20 95 9 16 554 571 562
571 0 0 209 -208 464 -462z"/>
</g>
</svg>
